<svg width="341" height="480" viewBox="0 0 341 480" fill="none" xmlns="http://www.w3.org/2000/svg">
<path d="M31.6185 121.386L29.4623 123.667L32.3649 126.093L35.2986 123.667L31.6185 121.386Z" fill="#F3F3F3"/>
<path d="M337.32 184.837L336.563 185.718L338.263 188.911C337.952 187.543 337.641 186.185 337.32 184.837Z" fill="#F3F3F3"/>
<path d="M16.7429 130.073L21.2315 129.234L24.8183 126.922V122.143H16.7533C16.7429 122.879 16.7429 130.073 16.7429 130.073Z" fill="#F3F3F3"/>
<path d="M323.16 142.834C321.387 138.853 319.521 134.925 317.531 131.058L316.017 132.768V143.352L320.672 142.72L323.16 142.834Z" fill="#F3F3F3"/>
<path d="M285.406 95.9585L290.102 88.9303C286.339 84.2863 282.368 79.7978 278.253 75.4441L278.212 87.137L267.897 92.3615L268.923 95.7927L285.406 95.9585Z" fill="#F3F3F3"/>
<path d="M20.7858 114.503V120.184L25.7201 119.002L20.7858 114.503Z" fill="#F3F3F3"/>
<path d="M6.70837 112.409L-0.164468 115.25L-1.51208 118.702L3.87838 120.184H18.2253V115.25H16.1417V112.409H6.70837Z" fill="#F3F3F3"/>
<path d="M-2.42432 134.085L1.79475 136.345L11.9537 122.143H4.0235L-1.51209 128.124L-2.42432 134.085Z" fill="#F3F3F3"/>
<path d="M26.7671 127.378V131.701L28.8611 134.707H36.4907V130.073L27.358 127.378H26.7671Z" fill="#F3F3F3"/>
<path d="M16.743 134.251L13.1459 134.551L11.9537 139.786H19.5833L23.0353 136.345V131.701L17.4893 132.457L16.743 134.251Z" fill="#F3F3F3"/>
<path d="M315.022 153.542L308.751 146.659L307.558 135.598L301.142 139.102L297.679 152.65L288.402 142.772L288.018 133.442L279.072 125.73L275.765 122.454H265.368L268.664 131.721L281.155 138.687L283.322 140.999L280.627 142.357L280.731 149.686L274.635 152.225L269.452 151.085L266.197 146.472L274.635 146.939L276.926 143.86L258.194 131.224L256.764 125.823L249.144 132.706L241.432 131.12L229.687 146.4L227.365 152.381L219.839 153.065L208.726 153.127L202.082 150.028L200.133 136.822L202.507 130.54L213.827 128.062L226.152 130.54L227.666 123.708L222.41 122.475L224.224 111.85L236.622 109.901L245.309 97.6378L254.255 96.1244L262.351 97.3269H265.326L263.699 85.8102L253.882 89.7804L250.42 81.1765L244.708 80.3576L243.63 74.449L248.284 69.38L259.345 65.047L262.185 59.9572C230.755 32.2488 192.006 12.6569 149.286 4.39521C148.312 4.21898 147.358 4.04276 146.394 3.8769C141.978 3.07872 137.5 2.53968 132.99 1.99028C123.391 0.818918 113.678 0 103.747 0C51.0864 0 2.36491 17.0936 -37.2654 45.9631L-35.2232 45.9527L-25.1679 45.8698L-19.7671 48.8552L-9.60813 51.0424L-8.8203 55.0437L7.35109 55.6346L5.15344 50.4619L-9.20386 50.0577L-5.82445 46.8649L-7.00621 43.0813H-19.9744L-5.82445 32.4976H7.74501L14.1203 41.288L24.7042 41.8788L31.0795 35.6903L35.8687 38.0849L27.0885 46.6576C27.0885 46.6576 14.9288 46.8649 15.5197 46.8649C16.1313 46.8649 16.5356 55.2407 16.5356 55.2407L31.2764 54.8364L32.8728 50.8558L43.0422 50.2442L44.2343 44.2838L38.2633 43.2679L40.2536 37.8775L44.8252 36.4781L60.7789 37.266L51.9883 45.2582L53.4084 51.4363L62.5826 52.8358L61.9814 41.6819L70.7616 37.0897L86.3214 35.286L108.868 45.2685V53.8516L116.031 55.6346L112.434 62.414H102.285L99.2585 70.1885L75.9966 64.7153L94.2827 54.9815L87.3165 49.0625L71.5598 51.0528L70.1603 52.4833L70.1085 52.4626L69.9012 52.7632L65.3608 57.4694L57.8659 58.1121L58.4672 61.8542L61.0898 62.9323L60.9862 64.1659L54.8804 65.0366L54.4347 68.5818L48.5985 68.8824L47.5411 61.8542L37.0608 65.0366L15.6752 77.5692L18.0594 86.3803L24.0304 90.2779L36.0035 91.9261V105.537L41.5183 104.635L46.6185 94.0201L59.3483 89.9877V73.6715L66.4285 68.333L83.5328 72.3758L82.32 83.1461H86.9122L99.4762 76.9679L100.088 91.1176L109.252 96.7049L108.868 105.091L100.088 108.076L100.689 110.855L111.252 115.675L111.055 121.449L107.977 121.708C107.977 121.615 107.956 121.542 107.956 121.542L94.604 117.437L94.0339 113.145L97.9316 110.471V106.573L93.7436 105.526L92.707 109.123L85.3366 110.253L84.6109 110.005V110.378L82.0712 110.761L79.9979 106.573L77.5929 105.526H72.358L69.9841 107.475V111.808L74.4623 113.311L78.8991 113.923L77.9039 114.369L73.8507 118.836L72.0885 116.597L68.1804 115.571L57.5549 125.574L58.9544 126.715L43.2495 135.391L28.4776 150.753L27.472 157.585L12.6794 167.308L5.36076 174.689L6.16933 189.45L-3.99998 184.702L-3.92743 176.078L-32.2273 176.088L-46.8956 183.51L-53.2502 195.245L-55.7795 204.543L-51.6538 213.572L-40.1161 214.982L-21.7574 202.698L-20.161 208.783L-25.7588 219.366L-11.7747 221.74L-10.3752 243.312L-8.61298 243.613L-8.44711 243.633L8.78163 246.567L20.9309 232.511L35.7029 235.506L40.8756 242.721L55.0463 241.881L55.4299 237.704L63.2253 241.477L71.9952 255.223L87.1507 255.44L92.7485 265.215L93.5363 277.157L110.299 283.553L131.435 283.76L137.624 293.909L146.985 296.925L145.202 305.311L134.918 318.362L131.923 347.242L122.634 354.581L108.899 354.156L104.296 362.148L107.707 377.107L92.7485 396.263L87.9489 405.053L73.6849 411.895L64.3241 413.336L63.9198 417.316L70.5128 419.213L69.6938 423.484L63.8058 429.155L67.3925 433.674L74.4831 433.881L74.0788 439.355L72.1921 444.755L71.6012 449.13L82.0919 457.982L80.6821 462.554L66.3974 462.305L52.1852 449.887L41.1244 430.43L42.669 411.646L34.2827 400.482L37.6724 381.543L32.707 380.133V339.053C32.707 339.053 18.7333 328.469 17.9454 328.469C17.1369 328.469 10.5543 326.686 10.5543 326.686L9.16519 318.901L-8.99652 296.179L-7.20317 288L-6.59155 274.638L5.96201 265.848L4.17902 250.89L-14.1693 249.511L-28.5473 233.143L-38.7063 230.354L-45.2889 229.152L-44.501 223.181L-52.8873 221.979V225.368L-73.8272 220.185L-82.2654 207.29L-79.3421 201.993L-82.8044 201.951L-83.8203 198.593L-81.3635 197.349L-92.0926 181.686L-94.3835 167.515H-99.774L-97.9703 181.271L-88.7961 195.431L-89.8016 201.029L-97.5867 199.837L-107.144 183.521V164.53L-117.127 159.73V148.162V146.068C-122.746 159.243 -127.172 173.061 -130.365 187.315L-129.805 187.201L-126.509 186.537L-124.56 195.898L-120.455 202.542L-117.718 205.673L-112.753 207.622L-117.428 213.178L-126.478 214.059H-133.319L-132.552 205.973L-126.882 204.802L-127.359 200.998L-132.055 198.033L-132.438 197.764C-134.885 211.488 -136.243 225.586 -136.243 239.984C-136.243 240.409 -136.211 240.834 -136.211 241.259C-135.517 373.012 -28.143 480 103.768 480C178.789 480 245.869 445.367 289.915 391.277H282.006V375.324L272.831 362.998V343.79L265.834 336.834L265.233 328.842L274.086 311.883L257.261 282.174L259.241 262.012L244.096 260.457L238.509 254.87H228.329L223.146 259.659H205.223L204.601 261.245H194.618L171.698 235.112L171.885 214.764L175.668 213.364L177.088 205.58H171.698L169.49 197.401L196.017 178.255V164.696L209.017 157.481L214.262 158.02H224.95L233.326 153.521L260.257 151.417V165.183L281.508 170.584L285.686 173.569H289.594V166.085L301.857 164.893L313.519 173.569H332.666L334.003 172.346C332.106 165.888 329.939 159.554 327.513 153.314L315.022 153.542Z" fill="#F3F3F3"/>
</svg>
